PathFileType	4	(x/y/z)	S06_M20_T14
DataRate	CameraRate	NumFrames	NumMarkers	Units	OrigDataRate	OrigDataStartFrame	OrigNumFrames
240	240	8	51	mm	240	428	488
Frame#	Time	Sternum			R.Acromium			L.Acromium			Top.Head			R.ASIS			L.ASIS			R.PSIS			L.PSIS			R.Great.Tro			L.Great.Tro			R.Iliac.Crest			L.Iliac.Crest			V.Sacral			R.Thigh.Upper.Post			R.Thigh.Lower.Ant			R.Thigh.Lower.Post			R.Thigh.Upper.Ant			R.Knee.Lat			R.Knee.Med			R.Shank.Upper.Post			R.Shank.Lower.Ant			R.Shank.Lower.Post			R.Shank.Upper.Ant			R.Ankle.Lat			R.Ankle.Med			R.Heel.Upper			R.Heel.Med			R.Heel.Lat			R.Toe.Lat			R.Toe.Med			R.Toe.Tip			L.Thigh.Upper.Post			L.Thigh.Lower.Ant			L.Thigh.Lower.Post			L.Thigh.Upper.Ant			L.Knee.Lat			L.Knee.Med			L.Shank.Upper.Post			L.Shank.Lower.Ant			L.Shank.Lower.Post			L.Shank.Upper.Ant			L.Ankle.Lat			L.Ankle.Med			L.Heel.Upper			L.Heel.Med			L.Heel.Lat			L.Toe.Lat			L.Toe.Med			L.Toe.Tip			Cervical.Spine			Back			
		X1	Y1	Z1	X2	Y2	Z2	X3	Y3	Z3	X4	Y4	Z4	X5	Y5	Z5	X6	Y6	Z6	X7	Y7	Z7	X8	Y8	Z8	X9	Y9	Z9	X10	Y10	Z10	X11	Y11	Z11	X12	Y12	Z12	X13	Y13	Z13	X14	Y14	Z14	X15	Y15	Z15	X16	Y16	Z16	X17	Y17	Z17	X18	Y18	Z18	X19	Y19	Z19	X20	Y20	Z20	X21	Y21	Z21	X22	Y22	Z22	X23	Y23	Z23	X24	Y24	Z24	X25	Y25	Z25	X26	Y26	Z26	X27	Y27	Z27	X28	Y28	Z28	X29	Y29	Z29	X30	Y30	Z30	X31	Y31	Z31	X32	Y32	Z32	X33	Y33	Z33	X34	Y34	Z34	X35	Y35	Z35	X36	Y36	Z36	X37	Y37	Z37	X38	Y38	Z38	X39	Y39	Z39	X40	Y40	Z40	X41	Y41	Z41	X42	Y42	Z42	X43	Y43	Z43	X44	Y44	Z44	X45	Y45	Z45	X46	Y46	Z46	X47	Y47	Z47	X48	Y48	Z48	X49	Y49	Z49	X50	Y50	Z50	X51	Y51	Z51	

428	1.7792	679.12	1296.1	335.98	543.91	1498.8	502.05	540.46	1496.7	150.3	578.3	1813.3	325.24	643.46	1056.8	454.77	648.31	1054	201.93	445.43	1069	361.17	445.78	1075.4	280.08	593.68	981.74	504.53	548.42	984.63	147.47	556.95	1125.8	486.14	577.98	1127.3	167.05	432.95	1037.4	322.49	695.56	754.74	506.18	777.34	701.38	472.73	718.94	668.89	490.67	754.15	789.27	481.61	776.74	575.69	482.66	779.66	573.17	354.22	713.52	357.54	495.95	766.51	287.21	479.57	702.05	281.08	486.65	777.61	362.83	488.7	719.38	144.47	470.16	739.79	144.03	386.22	657.65	95.894	419.82	669.55	63.94	391.66	663.7	66.969	456.68	836.63	64.427	509.32	869.6	68.996	394.3	930.9	90.019	442.89	563.85	723.01	184.08	602.05	637.08	243.82	531.14	640.57	205.62	628.01	725.34	217.82	494.98	547.29	225.73	523.75	555.41	345.01	419.49	323.53	253.27	477.29	255.99	255.48	408.65	254.24	275.84	484.57	325.03	239.2	442.22	110.35	282.17	456.61	131.42	367.54	363.28	77.47	329.78	367.23	48.821	360.17	367.09	53.731	298.53	545.29	45.432	256.15	567.81	39.689	375.2	639.92	47.795	320.12	486.98	1547.7	326.47	439.39	1271.9	325.07
429	1.7833	683.9	1295.4	335.99	548.75	1498.2	502.1	545.39	1496.2	150.34	583.12	1812.8	325.39	648.13	1056.2	454.72	652.88	1053.4	201.86	450.05	1068.5	361.19	450.38	1074.9	280.11	598.31	981.13	504.5	552.65	984.22	147.44	561.58	1125.2	486.13	582.6	1126.7	167.04	437.55	1037	322.5	699.9	754.09	506	781.77	700.87	472.55	723.38	668.29	490.4	758.47	788.73	481.53	781.86	575.36	482.33	784.72	572.97	353.89	723.15	355.78	495.11	777.79	286.74	478.83	713.45	279.09	485.59	787.22	362.52	488.07	733.96	142.84	468.99	754.58	143.15	385.12	673.52	92.887	418.43	686.27	61.361	390.16	680.26	63.962	455.13	853.16	65.461	508.07	886.12	71.373	393.14	946.81	93.656	441.92	566.6	722.67	183.99	604.54	636.53	243.66	533.53	640.37	205.57	630.8	724.7	217.69	496.85	547.25	225.7	525.76	555.2	344.97	420.43	323.8	253.29	477.95	256.03	255.44	409.32	254.55	275.87	485.49	325.04	239.14	442.32	110.48	282.22	456.88	131.55	367.56	363.3	77.503	329.82	367.25	48.864	360.21	367.1	53.765	298.57	545.29	45.427	256.15	567.85	39.676	375.22	639.96	47.745	320.09	491.89	1547.3	326.51	444.14	1271.5	325.03
430	1.7875	688.68	1294.8	336	553.59	1497.6	502.16	550.33	1495.7	150.39	587.96	1812.3	325.55	652.82	1055.5	454.68	657.46	1052.8	201.79	454.69	1068	361.2	455	1074.5	280.14	602.93	980.49	504.46	556.89	983.79	147.4	566.21	1124.6	486.12	587.24	1126.2	167.03	442.15	1036.6	322.5	704.19	753.37	505.84	786.14	700.27	472.4	727.74	667.62	490.15	762.74	788.12	481.48	786.86	574.95	482.01	789.7	572.7	353.55	732.67	354.05	494.22	788.94	286.33	478.08	724.76	277.16	484.47	796.69	362.23	487.43	748.45	141.35	467.76	769.27	142.44	383.97	689.34	90.069	416.99	702.92	59	388.58	696.77	61.143	453.52	869.53	66.644	506.76	902.45	73.96	391.94	962.5	97.457	440.92	569.39	722.32	183.89	607.06	635.98	243.49	535.97	640.17	205.51	633.63	724.05	217.54	498.79	547.2	225.67	527.84	555	344.93	421.41	324.08	253.3	478.64	256.07	255.4	410.03	254.87	275.88	486.46	325.05	239.08	442.43	110.62	282.27	457.17	131.69	367.59	363.31	77.539	329.87	367.27	48.91	360.25	367.12	53.801	298.61	545.3	45.421	256.16	567.89	39.666	375.23	640	47.693	320.06	496.81	1546.7	326.56	448.91	1271	325
431	1.7917	693.48	1294.1	336.02	558.44	1497	502.21	555.26	1495.2	150.44	592.8	1811.7	325.72	657.51	1054.8	454.62	662.06	1052.1	201.71	459.34	1067.6	361.22	459.63	1074	280.16	607.55	979.81	504.43	561.14	983.35	147.35	570.86	1124	486.12	591.91	1125.6	167.01	446.78	1036.1	322.5	708.42	752.58	505.71	790.44	699.6	472.28	732.03	666.88	489.92	766.97	787.42	481.47	791.74	574.47	481.69	794.6	572.36	353.22	742.07	352.34	493.28	799.94	285.97	477.31	735.95	275.3	483.29	806.01	361.96	486.78	762.84	140	466.48	783.85	141.9	382.79	705.09	87.443	415.48	719.49	56.863	386.94	713.2	58.515	451.83	885.74	67.969	505.4	918.57	76.753	390.69	977.96	101.41	439.9	572.23	721.96	183.78	609.62	635.43	243.31	538.45	639.97	205.45	636.51	723.4	217.38	500.77	547.15	225.64	529.98	554.79	344.89	422.43	324.36	253.31	479.36	256.1	255.37	410.77	255.2	275.89	487.47	325.06	239.02	442.55	110.77	282.32	457.46	131.83	367.61	363.32	77.581	329.91	367.29	48.96	360.29	367.13	53.842	298.65	545.31	45.413	256.17	567.93	39.659	375.24	640.04	47.638	320.03	501.73	1546.2	326.61	453.68	1270.5	324.98
432	1.7958	698.28	1293.5	336.04	563.3	1496.3	502.27	560.21	1494.7	150.5	597.66	1811.2	325.88	662.22	1054.1	454.57	666.67	1051.4	201.63	464	1067	361.23	464.27	1073.5	280.19	612.17	979.11	504.4	565.4	982.89	147.29	575.51	1123.4	486.12	596.61	1125.1	166.99	451.42	1035.6	322.51	712.6	751.74	505.61	794.68	698.84	472.18	736.23	666.09	489.71	771.16	786.66	481.48	796.51	573.91	481.37	799.43	571.95	352.88	751.34	350.66	492.31	810.79	285.68	476.52	747.02	273.51	482.06	815.18	361.7	486.12	777.12	138.8	465.16	798.31	141.51	381.57	720.76	85.012	413.91	735.97	54.953	385.22	729.56	56.082	450.07	901.78	69.432	503.99	934.49	79.748	389.42	993.18	105.52	438.86	575.1	721.61	183.67	612.21	634.87	243.11	540.99	639.76	205.39	639.42	722.75	217.2	502.81	547.08	225.61	532.19	554.57	344.84	423.5	324.65	253.32	480.11	256.14	255.33	411.54	255.54	275.9	488.52	325.07	238.97	442.67	110.92	282.38	457.76	131.98	367.64	363.34	77.631	329.97	367.32	49.016	360.34	367.15	53.891	298.7	545.32	45.404	256.18	567.97	39.655	375.25	640.09	47.581	320	506.67	1545.7	326.67	458.46	1269.9	324.96
433	1.8	703.1	1292.8	336.06	568.16	1495.7	502.34	565.15	1494.2	150.56	602.52	1810.6	326.05	666.94	1053.4	454.52	671.28	1050.8	201.54	468.68	1066.5	361.25	468.93	1073	280.22	616.8	978.38	504.38	569.69	982.42	147.22	580.18	1122.8	486.13	601.34	1124.5	166.97	456.07	1035.1	322.52	716.74	750.85	505.53	798.86	698.02	472.11	740.37	665.24	489.51	775.31	785.83	481.53	801.16	573.28	481.05	804.19	571.48	352.54	760.48	349.01	491.29	821.49	285.43	475.72	757.96	271.8	480.77	824.2	361.46	485.45	791.27	137.74	463.8	812.64	141.29	380.33	736.33	82.778	412.28	752.34	53.27	383.44	745.81	53.843	448.24	917.61	71.027	502.55	950.18	82.939	388.12	1008.1	109.77	437.83	578.02	721.24	183.56	614.85	634.31	242.9	543.57	639.55	205.32	642.39	722.09	217	504.9	547.02	225.59	534.47	554.35	344.78	424.61	324.94	253.32	480.9	256.18	255.29	412.34	255.88	275.91	489.61	325.08	238.92	442.82	111.09	282.43	458.07	132.13	367.66	363.36	77.69	330.02	367.35	49.08	360.4	367.17	53.949	298.75	545.33	45.394	256.19	568.01	39.653	375.26	640.13	47.519	319.97	511.62	1545.1	326.72	463.25	1269.4	324.94
434	1.8042	707.93	1292.1	336.09	573.04	1495	502.41	570.1	1493.6	150.62	607.38	1810	326.22	671.67	1052.6	454.47	675.91	1050	201.46	473.37	1066	361.26	473.6	1072.5	280.25	621.43	977.62	504.36	573.98	981.94	147.14	584.87	1122.1	486.14	606.08	1123.9	166.95	460.74	1034.6	322.53	720.84	749.91	505.48	802.99	697.12	472.06	744.44	664.33	489.31	779.44	784.93	481.61	805.69	572.57	480.72	808.89	570.96	352.19	769.48	347.39	490.22	832.03	285.25	474.9	768.77	270.16	479.44	833.05	361.24	484.78	805.28	136.81	462.41	826.83	141.24	379.07	751.8	80.741	410.6	768.59	51.815	381.59	761.95	51.802	446.34	933.24	72.748	501.08	965.64	86.316	386.82	1022.8	114.14	436.82	580.97	720.88	183.44	617.54	633.75	242.68	546.2	639.34	205.25	645.39	721.43	216.79	507.05	546.95	225.56	536.82	554.13	344.71	425.76	325.25	253.33	481.72	256.22	255.26	413.19	256.24	275.92	490.74	325.09	238.88	442.97	111.26	282.49	458.39	132.29	367.69	363.38	77.762	330.09	367.38	49.153	360.46	367.19	54.02	298.82	545.34	45.383	256.2	568.06	39.654	375.27	640.18	47.452	319.93	516.58	1544.5	326.78	468.05	1268.8	324.93
435	1.8083	712.76	1291.3	336.11	577.93	1494.3	502.48	575.06	1493	150.69	612.26	1809.4	326.39	676.42	1051.8	454.42	680.55	1049.3	201.37	478.08	1065.4	361.28	478.28	1072	280.29	626.06	976.85	504.35	578.3	981.45	147.05	589.59	1121.5	486.15	610.85	1123.3	166.92	465.42	1034	322.54	724.91	748.92	505.45	807.08	696.16	472.02	748.46	663.38	489.12	783.55	783.97	481.71	810.12	571.8	480.38	813.54	570.38	351.83	778.36	345.8	489.11	842.4	285.11	474.06	779.44	268.6	478.05	841.73	361.04	484.09	819.15	136.04	460.98	840.88	141.34	377.79	767.14	78.903	408.86	784.71	50.587	379.68	777.96	49.956	444.39	948.64	74.59	499.6	980.84	89.87	385.53	1037.3	118.64	435.84	583.97	720.52	183.32	620.26	633.19	242.46	548.88	639.12	205.18	648.45	720.76	216.56	509.26	546.87	225.54	539.24	553.9	344.64	426.95	325.55	253.34	482.57	256.26	255.23	414.06	256.61	275.93	491.92	325.09	238.85	443.14	111.44	282.54	458.73	132.46	367.71	363.42	77.85	330.16	367.42	49.24	360.53	367.22	54.107	298.88	545.35	45.372	256.21	568.11	39.657	375.28	640.23	47.38	319.9	521.54	1543.9	326.84	472.85	1268.3	324.92
